<svg width="395" height="456" viewBox="0 0 395 456" fill="none" xmlns="http://www.w3.org/2000/svg">
<path d="M120.234 328.125L118.969 331.92L121.772 332.854L123.489 330.45L120.234 328.125ZM16.7344 324.75L14.811 328.257L14.8776 328.294L14.9455 328.328L16.7344 324.75ZM14.625 309L15.6956 305.146L13.1512 304.439L11.5015 306.501L14.625 309ZM32.9062 309.422L34.0709 313.249L34.1461 313.226L34.2203 313.2L32.9062 309.422ZM38.6719 305.625L35.7769 302.865L35.7681 302.874L38.6719 305.625ZM34.5938 130.969L33.2723 134.744L33.2844 134.748L33.2965 134.753L34.5938 130.969ZM28.6875 129.281L27.5886 133.127L27.6941 133.157L27.801 133.182L28.6875 129.281ZM22.9219 127.734L21.7173 131.549L21.8335 131.585L21.9517 131.615L22.9219 127.734ZM18.1406 125.906L16.2691 129.441L16.358 129.488L16.4491 129.531L18.1406 125.906ZM15.6094 110.719L16.738 106.881L14.3048 106.166L12.6197 108.061L15.6094 110.719ZM178.453 113.812L175.936 116.921L175.987 116.963L176.039 117.002L178.453 113.812ZM181.406 154.875L185.267 155.922L185.269 155.914L185.271 155.906L181.406 154.875ZM178.031 165L174.625 162.904L174.606 162.934L174.588 162.965L178.031 165ZM164.391 166.125L161.848 169.213L161.891 169.248L161.935 169.282L164.391 166.125ZM162 163.312H166V163.172L165.99 163.032L162 163.312ZM154.688 136.453L151.615 139.014L151.632 139.035L151.65 139.056L154.688 136.453ZM83.3906 131.531L85.6675 134.82L85.6801 134.811L85.6926 134.802L83.3906 131.531ZM78.75 137.578L82.59 138.698L82.596 138.677L82.6019 138.657L78.75 137.578ZM77.625 146.297L73.6264 146.192L73.625 146.244V146.297H77.625ZM77.625 211.125H73.625V215.125H77.625V211.125ZM143.578 205.781L145.117 202.089L143.971 201.612L142.756 201.867L143.578 205.781ZM146.109 233.625L146.477 237.608L148.848 237.389L149.786 235.201L146.109 233.625ZM103.641 233.203L103.211 237.18L103.22 237.181L103.229 237.182L103.641 233.203ZM77.625 230.391L78.0549 226.414L73.625 225.935V230.391H77.625ZM96.6094 308.156L97.1055 304.187L97.0928 304.186L97.0802 304.184L96.6094 308.156ZM116.156 312.094L114.315 315.645L114.393 315.685L114.472 315.722L116.156 312.094ZM121.219 315.75L117.812 317.846L117.85 317.908L117.891 317.969L121.219 315.75ZM121.499 324.33C119.901 323.797 117.785 323.488 115.389 323.294C112.922 323.095 109.887 323 106.312 323V331C109.769 331 112.57 331.093 114.744 331.268C116.989 331.45 118.318 331.703 118.969 331.92L121.499 324.33ZM106.312 323H28.5469V331H106.312V323ZM28.5469 323C24.0319 323 20.7739 322.298 18.5232 321.172L14.9455 328.328C18.6949 330.202 23.3118 331 28.5469 331V323ZM18.6577 321.243C17.3629 320.533 16.375 319.257 16.375 316.172H8.375C8.375 321.337 10.2934 325.78 14.811 328.257L18.6577 321.243ZM16.375 316.172C16.375 313.976 16.9281 312.524 17.7485 311.499L11.5015 306.501C9.32193 309.226 8.375 312.555 8.375 316.172H16.375ZM13.5544 312.854C17.2546 313.882 20.9427 314.406 24.6094 314.406V306.406C21.7135 306.406 18.7454 305.993 15.6956 305.146L13.5544 312.854ZM24.6094 314.406C28.2034 314.406 31.3995 314.062 34.0709 313.249L31.7416 305.595C30.1005 306.095 27.7654 306.406 24.6094 306.406V314.406ZM34.2203 313.2C37.0257 312.224 39.4818 310.586 41.5757 308.376L35.7681 302.874C34.487 304.226 33.0993 305.12 31.5922 305.644L34.2203 313.2ZM41.5668 308.385C46.4106 303.305 48.4375 295.87 48.4375 286.922H40.4375C40.4375 294.849 38.6206 299.882 35.7769 302.865L41.5668 308.385ZM48.4375 286.922V146.578H40.4375V286.922H48.4375ZM48.4375 146.578C48.4375 141.985 47.5148 137.842 45.36 134.425C43.1706 130.953 39.9189 128.566 35.891 127.185L33.2965 134.753C35.8311 135.622 37.5013 136.961 38.5932 138.692C39.7195 140.478 40.4375 143.015 40.4375 146.578H48.4375ZM35.9152 127.193C33.8888 126.484 31.7743 125.881 29.574 125.381L27.801 133.182C29.7257 133.619 31.5487 134.141 33.2723 134.744L35.9152 127.193ZM29.7864 125.435C27.7774 124.861 25.8126 124.334 23.892 123.854L21.9517 131.615C23.7812 132.072 25.6601 132.576 27.5886 133.127L29.7864 125.435ZM24.1264 123.92C22.4792 123.4 21.0524 122.851 19.8322 122.282L16.4491 129.531C18.0413 130.274 19.8021 130.944 21.7173 131.549L24.1264 123.92ZM20.0122 122.371C17.7595 121.179 17.3594 120.06 17.3594 119.016H9.35938C9.35938 123.784 12.1467 127.259 16.2691 129.441L20.0122 122.371ZM17.3594 119.016C17.3594 115.518 18.0743 113.966 18.599 113.376L12.6197 108.061C10.1444 110.846 9.35938 114.826 9.35938 119.016H17.3594ZM14.4807 114.556C16.4468 115.134 18.4678 115.422 20.5312 115.422V107.422C19.2197 107.422 17.9594 107.241 16.738 106.881L14.4807 114.556ZM20.5312 115.422H162.844V107.422H20.5312V115.422ZM162.844 115.422C166.965 115.422 170.15 115.618 172.469 115.973C173.625 116.151 174.489 116.356 175.105 116.561C175.749 116.776 175.953 116.935 175.936 116.921L180.97 110.704C179.1 109.19 176.377 108.479 173.68 108.066C170.795 107.624 167.16 107.422 162.844 107.422V115.422ZM176.039 117.002C176.814 117.589 177.765 118.865 178.504 121.501C179.236 124.112 179.656 127.697 179.656 132.375H187.656C187.656 127.303 187.21 122.919 186.207 119.342C185.212 115.792 183.561 112.661 180.867 110.623L176.039 117.002ZM179.656 132.375C179.656 141.586 178.914 148.696 177.541 153.844L185.271 155.906C186.898 149.804 187.656 141.914 187.656 132.375H179.656ZM177.546 153.828C176.805 156.559 176.171 158.704 175.643 160.29C175.378 161.083 175.151 161.703 174.961 162.17C174.866 162.402 174.787 162.58 174.724 162.711C174.693 162.776 174.668 162.824 174.65 162.858C174.631 162.893 174.623 162.906 174.625 162.904L181.438 167.096C182.083 166.049 182.674 164.495 183.232 162.82C183.829 161.03 184.507 158.723 185.267 155.922L177.546 153.828ZM174.588 162.965C174.069 163.843 173.578 164.094 172.688 164.094V172.094C176.484 172.094 179.556 170.282 181.475 167.035L174.588 162.965ZM172.688 164.094C169.106 164.094 167.46 163.445 166.846 162.968L161.935 169.282C164.696 171.43 168.581 172.094 172.688 172.094V164.094ZM166.933 163.037C166.587 162.752 166.307 162.506 166.086 162.298C165.862 162.087 165.723 161.938 165.645 161.847C165.558 161.744 165.601 161.775 165.682 161.928C165.726 162.011 165.799 162.164 165.865 162.379C165.93 162.594 166 162.914 166 163.312H158C158 164.357 158.354 165.186 158.617 165.681C158.897 166.209 159.239 166.663 159.55 167.028C160.17 167.757 160.973 168.492 161.848 169.213L166.933 163.037ZM165.99 163.032C165.51 156.218 164.638 150.374 163.328 145.563C162.029 140.79 160.23 136.773 157.725 133.85L151.65 139.056C153.083 140.727 154.471 143.483 155.609 147.664C156.737 151.806 157.552 157.095 158.01 163.593L165.99 163.032ZM157.76 133.892C152.313 127.356 142.165 124.859 129.234 124.859V132.859C141.804 132.859 148.624 135.425 151.615 139.014L157.76 133.892ZM129.234 124.859H102.234V132.859H129.234V124.859ZM102.234 124.859C97.1253 124.859 92.8397 125.085 89.4385 125.567C86.1967 126.027 83.1785 126.789 81.0887 128.26L85.6926 134.802C86.134 134.492 87.522 133.919 90.5615 133.488C93.4415 133.079 97.3122 132.859 102.234 132.859V124.859ZM81.1138 128.242C78.083 130.341 75.8573 133.074 74.8981 136.5L82.6019 138.657C82.9552 137.395 83.8232 136.097 85.6675 134.82L81.1138 128.242ZM74.91 136.458C74.1214 139.162 73.725 142.444 73.6264 146.192L81.6236 146.402C81.7125 143.025 82.0661 140.494 82.59 138.698L74.91 136.458ZM73.625 146.297V211.125H81.625V146.297H73.625ZM77.625 215.125H84.2344V207.125H77.625V215.125ZM84.2344 215.125C107.026 215.125 127.094 213.329 144.4 209.696L142.756 201.867C126.125 205.358 106.63 207.125 84.2344 207.125V215.125ZM142.04 209.474C142.244 209.559 142.931 209.949 143.58 211.898C144.229 213.845 144.641 216.803 144.641 220.969H152.641C152.641 216.416 152.208 212.483 151.17 209.368C150.132 206.254 148.287 203.41 145.117 202.089L142.04 209.474ZM144.641 220.969C144.641 224.955 143.896 228.635 142.433 232.049L149.786 235.201C151.698 230.74 152.641 225.983 152.641 220.969H144.641ZM145.742 229.642C139.787 230.192 133.348 230.469 126.422 230.469V238.469C133.558 238.469 140.245 238.183 146.477 237.608L145.742 229.642ZM126.422 230.469C119.548 230.469 112.094 230.056 104.052 229.224L103.229 237.182C111.5 238.038 119.233 238.469 126.422 238.469V230.469ZM104.071 229.226L78.0549 226.414L77.1951 234.367L103.211 237.18L104.071 229.226ZM73.625 230.391V293.812H81.625V230.391H73.625ZM73.625 293.812C73.625 299.073 75.7758 303.476 79.9598 306.637C83.9352 309.64 89.4913 311.341 96.1386 312.128L97.0802 304.184C91.0712 303.472 87.1351 302.031 84.7824 300.254C82.6383 298.634 81.625 296.614 81.625 293.812H73.625ZM96.1132 312.125C101.315 312.776 105.46 313.418 108.581 314.046C111.829 314.7 113.596 315.272 114.315 315.645L117.998 308.543C116.186 307.603 113.429 306.862 110.161 306.204C106.766 305.52 102.404 304.849 97.1055 304.187L96.1132 312.125ZM114.472 315.722C115.636 316.262 116.474 316.749 117.049 317.165C117.332 317.369 117.525 317.538 117.652 317.664C117.779 317.792 117.817 317.855 117.812 317.846L124.625 313.654C123.218 311.367 120.58 309.737 117.841 308.466L114.472 315.722ZM117.891 317.969C118.105 318.29 118.344 318.875 118.344 319.969H126.344C126.344 317.688 125.833 315.46 124.547 313.531L117.891 317.969ZM118.344 319.969C118.344 322.952 117.732 324.746 116.979 325.8L123.489 330.45C125.549 327.566 126.344 323.923 126.344 319.969H118.344Z" fill="#094100"/>
<path d="M159.145 359.922H70.8145C68.8809 354.648 67.9141 349.463 67.9141 344.365C67.9141 339.092 68.1777 334.609 68.7051 330.918C69.4082 327.227 70.375 323.887 71.6055 320.898C74.7695 314.395 78.4609 311.143 82.6797 311.143H159.145V217.803C163.715 215.518 168.725 214.375 174.174 214.375C179.799 214.375 184.457 214.727 188.148 215.43C192.016 215.957 195.443 216.836 198.432 218.066C205.287 221.23 208.715 225.273 208.715 230.195V311.143H295.727C298.012 315.713 299.154 320.811 299.154 326.436C299.154 332.061 298.803 336.719 298.1 340.41C297.572 343.926 296.605 347.09 295.199 349.902C292.211 356.582 288.256 359.922 283.334 359.922H208.715V452.998C203.441 454.932 198.168 455.898 192.895 455.898C187.621 455.898 183.051 455.635 179.184 455.107C175.492 454.404 172.152 453.438 169.164 452.207C162.484 449.219 159.145 445.527 159.145 441.133V359.922Z" fill="#3DE413"/>
</svg>
