<svg width="610" height="671" viewBox="0 0 610 671" fill="none" xmlns="http://www.w3.org/2000/svg">
<path d="M14.4035 177.672L6.71061 171.283L0.583643 178.66L7.6981 185.091L14.4035 177.672ZM42.6275 143.688L48.9846 135.969L41.2972 129.638L34.9346 137.299L42.6275 143.688ZM64.2275 156.936L60.2076 166.092L60.3021 166.134L60.3974 166.173L64.2275 156.936ZM100.804 138.792L96.1778 147.658L96.4045 147.776L96.637 147.883L100.804 138.792ZM82.3715 130.44L78.5011 139.661L78.5212 139.669L78.5414 139.677L82.3715 130.44ZM59.0435 120.648L62.9139 111.427L62.8209 111.388L62.7271 111.351L59.0435 120.648ZM32.5475 101.64L40.1044 95.0907L40.1044 95.0907L32.5475 101.64ZM40.8995 27.624L47.453 35.1772L47.4845 35.1499L47.5157 35.1224L40.8995 27.624ZM123.556 16.68L119.955 26.0092L120.053 26.047L120.151 26.0826L123.556 16.68ZM153.219 35.4L161.042 41.6293L166.668 34.564L160.211 28.2499L153.219 35.4ZM128.452 66.504L122.734 74.708L130.43 80.0723L136.274 72.7333L128.452 66.504ZM110.02 56.424L106.306 65.7088L106.357 65.7295L106.41 65.7497L110.02 56.424ZM78.9155 76.008L74.4434 84.9523L74.5831 85.0221L74.7249 85.0876L78.9155 76.008ZM99.0755 84.36L102.728 75.051L102.704 75.0415L102.679 75.032L99.0755 84.36ZM121.828 93.288L125.489 83.9823L125.48 83.9791L121.828 93.288ZM139.396 186.312L146.3 193.546L146.3 193.546L139.396 186.312ZM85.2515 194.456C74.6007 194.456 63.4255 192.483 51.6783 188.389L45.0967 207.275C58.6935 212.013 72.0943 214.456 85.2515 214.456V194.456ZM51.6783 188.389C40.272 184.414 30.1043 178.384 21.1089 170.253L7.6981 185.091C18.6707 195.008 31.159 202.418 45.0967 207.275L51.6783 188.389ZM22.0964 184.061L50.3204 150.077L34.9346 137.299L6.71061 171.283L22.0964 184.061ZM36.2704 151.407C43.5196 157.377 51.5083 162.273 60.2076 166.092L68.2474 147.78C61.2027 144.687 54.7914 140.751 48.9846 135.969L36.2704 151.407ZM60.3974 166.173C69.2092 169.827 77.9095 171.832 86.4035 171.832V151.832C81.0735 151.832 74.9898 150.573 68.0577 147.699L60.3974 166.173ZM86.4035 171.832C94.2194 171.832 101.774 170.676 107.667 167.013C114.347 162.86 117.716 156.223 117.716 148.584H97.7155C97.7155 149.018 97.6719 149.296 97.6366 149.449C97.6027 149.596 97.572 149.652 97.5706 149.654C97.5702 149.655 97.564 149.67 97.5234 149.712C97.4787 149.758 97.3587 149.871 97.1082 150.027C95.8966 150.78 92.7956 151.832 86.4035 151.832V171.832ZM117.716 148.584C117.716 144.538 116.625 140.553 114.157 137.057C111.748 133.645 108.454 131.298 104.97 129.701L96.637 147.883C97.7608 148.398 97.9225 148.739 97.8178 148.591C97.769 148.522 97.7264 148.432 97.7052 148.361C97.6868 148.3 97.7155 148.355 97.7155 148.584H117.716ZM105.429 129.926C100.635 127.425 94.1835 124.512 86.2016 121.203L78.5414 139.677C86.3036 142.896 92.1399 145.551 96.1778 147.658L105.429 129.926ZM86.2419 121.219L62.9139 111.427L55.1731 129.869L78.5011 139.661L86.2419 121.219ZM62.7271 111.351C54.1113 107.937 46.589 102.573 40.1044 95.0907L24.9906 108.189C33.482 117.987 43.6237 125.295 55.3599 129.945L62.7271 111.351ZM40.1044 95.0907C34.4612 88.5793 31.3155 79.9994 31.3155 68.52H11.3155C11.3155 83.9206 15.6578 97.4207 24.9906 108.189L40.1044 95.0907ZM31.3155 68.52C31.3155 55.7483 36.3768 44.7874 47.453 35.1772L34.346 20.0708C19.3102 33.1165 11.3155 49.4197 11.3155 68.52H31.3155ZM47.5157 35.1224C58.4424 25.4811 72.6602 20.344 91.0115 20.344V0.343983C68.6588 0.343983 49.4686 6.72683 34.2833 20.1256L47.5157 35.1224ZM91.0115 20.344C100.425 20.344 110.055 22.1881 119.955 26.0092L127.156 7.35076C115.168 2.72386 103.102 0.343983 91.0115 0.343983V20.344ZM120.151 26.0826C129.917 29.6184 138.588 35.0795 146.228 42.5501L160.211 28.2499C150.571 18.8244 139.466 11.8055 126.96 7.27733L120.151 26.0826ZM145.397 29.1707L120.629 60.2747L136.274 72.7333L161.042 41.6293L145.397 29.1707ZM134.169 58.3C127.31 53.5192 120.463 49.7435 113.629 47.0983L106.41 65.7497C111.48 67.7125 116.921 70.6568 122.734 74.708L134.169 58.3ZM113.733 47.1392C106.665 44.3117 99.0507 42.968 91.0115 42.968V62.968C96.7963 62.968 101.854 63.9283 106.306 65.7088L113.733 47.1392ZM91.0115 42.968C83.7251 42.968 76.5344 44.0887 70.891 47.7403C64.4977 51.8771 61.4275 58.3732 61.4275 65.64H81.4275C81.4275 64.8272 81.5785 64.6032 81.5412 64.6756C81.4861 64.7826 81.4526 64.728 81.756 64.5317C82.6406 63.9593 85.2419 62.968 91.0115 62.968V42.968ZM61.4275 65.64C61.4275 74.9043 67.1294 81.2953 74.4434 84.9523L83.3876 67.0637C81.904 66.3219 81.4632 65.7678 81.4063 65.6891C81.3847 65.6591 81.4079 65.6869 81.4278 65.7496C81.4466 65.8088 81.4275 65.7898 81.4275 65.64H61.4275ZM74.7249 85.0876C79.9926 87.5188 86.9342 90.3895 95.4715 93.688L102.679 75.032C94.3208 71.8025 87.8224 69.1052 83.1061 66.9284L74.7249 85.0876ZM95.4226 93.6689L118.175 102.597L125.48 83.9791L102.728 75.051L95.4226 93.6689ZM118.166 102.594C128.543 106.676 135.947 112.132 140.966 118.672L156.833 106.496C149.18 96.5245 138.536 89.1156 125.489 83.9823L118.166 102.594ZM140.966 118.672C145.652 124.778 148.404 133.128 148.404 144.552H168.404C168.404 129.864 164.819 116.902 156.833 106.496L140.966 118.672ZM148.404 144.552C148.404 157.241 143.432 168.635 132.491 179.078L146.3 193.546C160.703 179.797 168.404 163.351 168.404 144.552H148.404ZM132.491 179.078C122.235 188.868 106.992 194.456 85.2515 194.456V214.456C110.359 214.456 131.212 207.948 146.3 193.546L132.491 179.078ZM204.326 178.536L196.975 185.315L196.995 185.337L197.015 185.359L204.326 178.536ZM204.326 35.4L197.132 28.454L197.111 28.4756L197.091 28.4972L204.326 35.4ZM330.182 35.4L322.947 42.3028L322.967 42.3244L322.988 42.3459L330.182 35.4ZM330.182 178.536L322.871 171.713L322.851 171.735L322.831 171.757L330.182 178.536ZM293.894 67.08L302.11 61.3792L302.11 61.3792L293.894 67.08ZM240.902 67.08L232.686 61.3792L232.686 61.3792L240.902 67.08ZM240.902 146.856L232.532 152.328L232.532 152.328L240.902 146.856ZM267.398 194.456C243.952 194.456 225.679 186.759 211.637 171.713L197.015 185.359C215.229 204.873 239.004 214.456 267.398 214.456V194.456ZM211.677 171.757C197.915 156.833 190.422 135.536 190.422 106.536H170.422C170.422 138.976 178.865 165.679 196.975 185.315L211.677 171.757ZM190.422 106.536C190.422 77.5142 197.923 56.599 211.561 42.3028L197.091 28.4972C178.857 47.609 170.422 74.1178 170.422 106.536H190.422ZM211.52 42.3459C225.535 27.8301 243.844 20.344 267.398 20.344V0.343983C239.112 0.343983 215.373 9.56191 197.132 28.454L211.52 42.3459ZM267.398 20.344C290.953 20.344 309.138 27.8289 322.947 42.3028L337.417 28.4972C319.354 9.56304 295.683 0.343983 267.398 0.343983V20.344ZM322.988 42.3459C336.795 56.6457 344.374 77.5448 344.374 106.536H364.374C364.374 74.0871 355.825 47.5622 337.376 28.454L322.988 42.3459ZM344.374 106.536C344.374 135.506 336.802 156.787 322.871 171.713L337.493 185.359C355.818 165.725 364.374 139.006 364.374 106.536H344.374ZM322.831 171.757C308.994 186.76 290.844 194.456 267.398 194.456V214.456C295.792 214.456 319.498 204.872 337.533 185.315L322.831 171.757ZM267.398 171.832C282.186 171.832 294.045 164.898 302.264 152.328L285.524 141.384C280.687 148.782 274.882 151.832 267.398 151.832V171.832ZM302.264 152.328C310.212 140.172 313.686 124.601 313.686 106.536H293.686C293.686 122.263 290.632 133.572 285.524 141.384L302.264 152.328ZM313.686 106.536C313.686 88.5211 310.232 73.084 302.11 61.3792L285.678 72.7808C290.612 79.892 293.686 90.7589 293.686 106.536H313.686ZM302.11 61.3792C293.776 49.3691 281.921 42.968 267.398 42.968V62.968C275.147 62.968 280.956 65.9749 285.678 72.7808L302.11 61.3792ZM267.398 42.968C252.875 42.968 241.02 49.3691 232.686 61.3792L249.118 72.7808C253.84 65.9749 259.649 62.968 267.398 62.968V42.968ZM232.686 61.3792C224.564 73.084 221.11 88.5211 221.11 106.536H241.11C241.11 90.7589 244.184 79.892 249.118 72.7808L232.686 61.3792ZM221.11 106.536C221.11 124.601 224.584 140.172 232.532 152.328L249.272 141.384C244.164 133.572 241.11 122.263 241.11 106.536H221.11ZM232.532 152.328C240.751 164.898 252.61 171.832 267.398 171.832V151.832C259.914 151.832 254.109 148.782 249.272 141.384L232.532 152.328ZM387.892 201H377.892V211H387.892V201ZM387.892 13.8V3.79999H377.892V13.8H387.892ZM437.428 13.8H447.428V3.79999H437.428V13.8ZM437.428 201V211H447.428V201H437.428ZM397.892 201V13.8H377.892V201H397.892ZM387.892 23.8H437.428V3.79999H387.892V23.8ZM427.428 13.8V201H447.428V13.8H427.428ZM437.428 191H387.892V211H437.428V191ZM479.017 201H469.017V211H479.017V201ZM479.017 13.8V3.79999H469.017V13.8H479.017ZM528.553 13.8H538.553V3.79999H528.553V13.8ZM528.553 159.528H518.553V169.528H528.553V159.528ZM599.401 159.528H609.401V149.528H599.401V159.528ZM599.401 201V211H609.401V201H599.401ZM489.017 201V13.8H469.017V201H489.017ZM479.017 23.8H528.553V3.79999H479.017V23.8ZM518.553 13.8V159.528H538.553V13.8H518.553ZM528.553 169.528H599.401V149.528H528.553V169.528ZM589.401 159.528V201H609.401V159.528H589.401ZM599.401 191H479.017V211H599.401V191ZM314.198 431H304.198V441H314.198V431ZM314.198 285.272H324.198V275.272H314.198V285.272ZM264.662 285.272H254.662V295.272H264.662V285.272ZM264.662 243.8V233.8H254.662V243.8H264.662ZM413.27 243.8H423.27V233.8H413.27V243.8ZM413.27 285.272V295.272H423.27V285.272H413.27ZM363.734 285.272V275.272H353.734V285.272H363.734ZM363.734 431V441H373.734V431H363.734ZM324.198 431V285.272H304.198V431H324.198ZM314.198 275.272H264.662V295.272H314.198V275.272ZM274.662 285.272V243.8H254.662V285.272H274.662ZM264.662 253.8H413.27V233.8H264.662V253.8ZM403.27 243.8V285.272H423.27V243.8H403.27ZM413.27 275.272H363.734V295.272H413.27V275.272ZM353.734 285.272V431H373.734V285.272H353.734ZM363.734 421H314.198V441H363.734V421ZM448.17 408.536L440.819 415.315L440.839 415.337L440.859 415.359L448.17 408.536ZM448.17 265.4L440.976 258.454L440.955 258.476L440.934 258.497L448.17 265.4ZM574.026 265.4L566.79 272.303L566.811 272.324L566.832 272.346L574.026 265.4ZM574.026 408.536L566.715 401.713L566.695 401.735L566.675 401.757L574.026 408.536ZM537.738 297.08L545.954 291.379L545.954 291.379L537.738 297.08ZM484.746 297.08L476.53 291.379L476.53 291.379L484.746 297.08ZM484.746 376.856L476.376 382.328L476.376 382.328L484.746 376.856ZM511.242 424.456C487.796 424.456 469.523 416.759 455.48 401.713L440.859 415.359C459.072 434.873 482.848 444.456 511.242 444.456V424.456ZM455.521 401.757C441.758 386.833 434.266 365.536 434.266 336.536H414.266C414.266 368.976 422.709 395.679 440.819 415.315L455.521 401.757ZM434.266 336.536C434.266 307.514 441.766 286.599 455.405 272.303L440.934 258.497C422.701 277.609 414.266 304.118 414.266 336.536H434.266ZM455.364 272.346C469.379 257.83 487.688 250.344 511.242 250.344V230.344C482.956 230.344 459.216 239.562 440.976 258.454L455.364 272.346ZM511.242 250.344C534.797 250.344 552.982 257.829 566.79 272.303L581.261 258.497C563.198 239.563 539.526 230.344 511.242 230.344V250.344ZM566.832 272.346C580.638 286.646 588.218 307.545 588.218 336.536H608.218C608.218 304.087 599.669 277.562 581.22 258.454L566.832 272.346ZM588.218 336.536C588.218 365.506 580.646 386.787 566.715 401.713L581.336 415.359C599.661 395.725 608.218 369.006 608.218 336.536H588.218ZM566.675 401.757C552.838 416.76 534.688 424.456 511.242 424.456V444.456C539.635 444.456 563.342 434.872 581.377 415.315L566.675 401.757ZM511.242 401.832C526.03 401.832 537.889 394.898 546.107 382.328L529.368 371.384C524.53 378.782 518.726 381.832 511.242 381.832V401.832ZM546.107 382.328C554.056 370.172 557.53 354.601 557.53 336.536H537.53C537.53 352.263 534.476 363.572 529.368 371.384L546.107 382.328ZM557.53 336.536C557.53 318.521 554.075 303.084 545.954 291.379L529.522 302.781C534.456 309.892 537.53 320.759 537.53 336.536H557.53ZM545.954 291.379C537.62 279.369 525.764 272.968 511.242 272.968V292.968C518.991 292.968 524.799 295.975 529.522 302.781L545.954 291.379ZM511.242 272.968C496.719 272.968 484.863 279.369 476.53 291.379L492.962 302.781C497.684 295.975 503.493 292.968 511.242 292.968V272.968ZM476.53 291.379C468.408 303.084 464.954 318.521 464.954 336.536H484.954C484.954 320.759 488.027 309.892 492.962 302.781L476.53 291.379ZM464.954 336.536C464.954 354.601 468.428 370.172 476.376 382.328L493.115 371.384C488.008 363.572 484.954 352.263 484.954 336.536H464.954ZM476.376 382.328C484.594 394.898 496.454 401.832 511.242 401.832V381.832C503.758 381.832 497.953 378.782 493.115 371.384L476.376 382.328ZM73.4548 661H63.4548V671H73.4548V661ZM73.4548 473.8V463.8H63.4548V473.8H73.4548ZM122.991 473.8H132.991V463.8H122.991V473.8ZM122.991 619.528H112.991V629.528H122.991V619.528ZM193.839 619.528H203.839V609.528H193.839V619.528ZM193.839 661V671H203.839V661H193.839ZM83.4548 661V473.8H63.4548V661H83.4548ZM73.4548 483.8H122.991V463.8H73.4548V483.8ZM112.991 473.8V619.528H132.991V473.8H112.991ZM122.991 629.528H193.839V609.528H122.991V629.528ZM183.839 619.528V661H203.839V619.528H183.839ZM193.839 651H73.4548V671H193.839V651ZM226.174 661H216.174V671H226.174V661ZM226.174 473.8V463.8H216.174V473.8H226.174ZM275.71 473.8H285.71V463.8H275.71V473.8ZM275.71 661V671H285.71V661H275.71ZM236.174 661V473.8H216.174V661H236.174ZM226.174 483.8H275.71V463.8H226.174V483.8ZM265.71 473.8V661H285.71V473.8H265.71ZM275.71 651H226.174V671H275.71V651ZM317.299 661H307.299V671H317.299V661ZM317.299 473.8V463.8H307.299V473.8H317.299ZM439.411 473.8H449.411V463.8H439.411V473.8ZM439.411 515.272V525.272H449.411V515.272H439.411ZM366.835 515.272V505.272H356.835V515.272H366.835ZM366.835 550.984H356.835V560.984H366.835V550.984ZM429.043 550.984H439.043V540.984H429.043V550.984ZM429.043 592.456V602.456H439.043V592.456H429.043ZM366.835 592.456V582.456H356.835V592.456H366.835ZM366.835 661V671H376.835V661H366.835ZM327.299 661V473.8H307.299V661H327.299ZM317.299 483.8H439.411V463.8H317.299V483.8ZM429.411 473.8V515.272H449.411V473.8H429.411ZM439.411 505.272H366.835V525.272H439.411V505.272ZM356.835 515.272V550.984H376.835V515.272H356.835ZM366.835 560.984H429.043V540.984H366.835V560.984ZM419.043 550.984V592.456H439.043V550.984H419.043ZM429.043 582.456H366.835V602.456H429.043V582.456ZM356.835 592.456V661H376.835V592.456H356.835ZM366.835 651H317.299V671H366.835V651ZM471.705 661H461.705V671H471.705V661ZM471.705 473.8V463.8H461.705V473.8H471.705ZM592.665 473.8H602.665V463.8H592.665V473.8ZM592.665 515.272V525.272H602.665V515.272H592.665ZM521.241 515.272V505.272H511.241V515.272H521.241ZM521.241 544.648H511.241V554.648H521.241V544.648ZM582.297 544.648H592.297V534.648H582.297V544.648ZM582.297 586.12V596.12H592.297V586.12H582.297ZM521.241 586.12V576.12H511.241V586.12H521.241ZM521.241 619.528H511.241V629.528H521.241V619.528ZM595.545 619.528H605.545V609.528H595.545V619.528ZM595.545 661V671H605.545V661H595.545ZM481.705 661V473.8H461.705V661H481.705ZM471.705 483.8H592.665V463.8H471.705V483.8ZM582.665 473.8V515.272H602.665V473.8H582.665ZM592.665 505.272H521.241V525.272H592.665V505.272ZM511.241 515.272V544.648H531.241V515.272H511.241ZM521.241 554.648H582.297V534.648H521.241V554.648ZM572.297 544.648V586.12H592.297V544.648H572.297ZM582.297 576.12H521.241V596.12H582.297V576.12ZM511.241 586.12V619.528H531.241V586.12H511.241ZM521.241 629.528H595.545V609.528H521.241V629.528ZM585.545 619.528V661H605.545V619.528H585.545ZM595.545 651H471.705V671H595.545V651Z" fill="black"/>
</svg>
